<svg width="375" height="278" viewBox="0 0 375 278" fill="none" xmlns="http://www.w3.org/2000/svg">
<g clip-path="url(#clip0_164_6)">
<rect width="375" height="233" transform="translate(0 -6)" fill="#2E46B7"/>
<rect y="-6" width="375" height="334" fill="#2E46B7"/>
<path opacity="0.3" d="M201.667 204.667C196.049 199.049 186.767 198.992 182.569 205.737C177.225 214.322 173.99 224.132 173.235 234.358C172.125 249.405 176.457 264.35 185.444 276.47C194.431 288.589 207.473 297.077 222.194 300.385C236.915 303.693 252.334 301.601 265.642 294.492C278.95 287.382 289.26 275.727 294.694 261.652C300.127 247.576 300.322 232.017 295.244 217.809C290.165 203.602 280.151 191.692 267.026 184.251C258.106 179.193 248.153 176.429 238.046 176.098C230.105 175.838 224.993 183.586 226.54 191.379C228.087 199.171 235.874 203.924 243.618 205.698C246.824 206.432 249.931 207.631 252.836 209.278C259.96 213.317 265.396 219.782 268.152 227.494C270.909 235.205 270.803 243.651 267.853 251.291C264.904 258.931 259.308 265.256 252.085 269.116C244.861 272.975 236.492 274.11 228.502 272.314C220.511 270.519 213.432 265.912 208.555 259.334C203.677 252.755 201.325 244.643 201.928 236.476C202.174 233.146 202.904 229.897 204.076 226.824C206.906 219.4 207.285 210.285 201.667 204.667Z" fill="#3749FF"/>
<path opacity="0.3" d="M301.5 9.31606C301.5 1.40952 295.008 -5.163 287.308 -3.36757C277.536 -1.08886 268.384 3.52683 260.679 10.1724C249.331 19.9602 241.878 33.4995 239.677 48.323C237.477 63.1465 240.676 78.2671 248.692 90.9292C256.707 103.591 269.005 112.952 283.345 117.305C297.685 121.658 313.111 120.714 326.813 114.645C340.515 108.575 351.58 97.7847 357.991 84.2395C364.403 70.6944 365.734 55.2965 361.742 40.852C359.032 31.0448 353.99 22.1204 347.134 14.7936C341.731 9.02061 332.681 10.8752 328.286 17.4475C323.891 24.0197 326.029 32.8447 330.219 39.5493C331.939 42.3 333.267 45.304 334.144 48.4787C336.307 56.306 335.586 64.6499 332.112 71.9898C328.637 79.3297 322.642 85.1769 315.217 88.4659C307.792 91.7548 299.433 92.2664 291.662 89.9075C283.892 87.5486 277.227 82.4763 272.884 75.6148C268.54 68.7534 266.807 60.5598 267.999 52.5271C269.192 44.4945 273.23 37.1577 279.38 31.8538C281.874 29.7026 284.648 27.9439 287.606 26.6132C294.817 23.3697 301.5 17.2226 301.5 9.31606Z" fill="#FCC07E"/>
<path opacity="0.3" d="M-34.4966 203.584C-43.5174 208.793 -46.7401 220.528 -39.6196 228.131C-30.5823 237.78 -19.2877 245.181 -6.63031 249.594C12.012 256.094 32.3691 255.679 50.7311 248.425C69.093 241.171 84.2374 227.561 93.404 210.075C102.571 192.589 105.149 172.392 100.67 153.164C96.191 133.936 84.9521 116.957 69.0017 105.323C53.0514 93.6878 33.4515 88.1714 13.7742 89.7788C-5.90319 91.3861 -24.348 100.01 -38.1987 114.079C-47.6028 123.632 -54.4639 135.262 -58.3068 147.912C-61.3346 157.878 -53.2573 166.982 -42.8636 167.667C-32.4699 168.353 -23.8096 160.1 -18.9206 150.903C-16.9148 147.129 -14.3624 143.635 -11.3181 140.543C-3.81264 132.919 6.18233 128.245 16.8452 127.374C27.5081 126.503 38.129 129.493 46.7723 135.797C55.4155 142.102 61.5057 151.303 63.933 161.722C66.3602 172.141 64.9628 183.086 59.9955 192.561C55.0282 202.037 46.8217 209.412 36.8716 213.343C26.9215 217.274 15.8903 217.498 5.78831 213.976C1.69096 212.548 -2.14287 210.541 -5.60982 208.042C-14.0601 201.952 -25.4758 198.376 -34.4966 203.584Z" fill="#FCC07E"/>
<circle opacity="0.3" cx="97.5" cy="44.5" r="17.5" fill="#FCC07E"/>
<circle cx="350.633" cy="216" r="11" fill="#293EE2"/>
</g>
<defs>
<clipPath id="clip0_164_6">
<rect width="375" height="233" fill="white" transform="translate(0 -6)"/>
</clipPath>
</defs>
</svg>
